<svg width="30" height="30" viewBox="0 0 30 30" fill="none" xmlns="http://www.w3.org/2000/svg">
<path fill-rule="evenodd" clip-rule="evenodd" d="M6.83753 6.83765C7.01331 6.66209 7.25159 6.56348 7.50003 6.56348C7.74847 6.56348 7.98675 6.66209 8.16253 6.83765L23.1625 21.8377C23.2546 21.9235 23.3285 22.027 23.3798 22.142C23.431 22.257 23.4585 22.3811 23.4608 22.507C23.463 22.6329 23.4398 22.7579 23.3927 22.8746C23.3455 22.9914 23.2754 23.0974 23.1863 23.1865C23.0973 23.2755 22.9913 23.3457 22.8745 23.3928C22.7578 23.44 22.6328 23.4631 22.5069 23.4609C22.381 23.4587 22.2569 23.4311 22.1419 23.3799C22.0269 23.3286 21.9234 23.2548 21.8375 23.1627L6.83753 8.16265C6.66197 7.98687 6.56335 7.74859 6.56335 7.50015C6.56335 7.25171 6.66197 7.01343 6.83753 6.83765Z" fill="white"/>
<path fill-rule="evenodd" clip-rule="evenodd" d="M23.1626 6.83765C23.3381 7.01343 23.4367 7.25171 23.4367 7.50015C23.4367 7.74859 23.3381 7.98687 23.1626 8.16265L8.16255 23.1627C7.98483 23.3283 7.74978 23.4184 7.5069 23.4141C7.26402 23.4098 7.03229 23.3114 6.86052 23.1397C6.68876 22.9679 6.59037 22.7362 6.58608 22.4933C6.5818 22.2504 6.67195 22.0154 6.83755 21.8377L21.8376 6.83765C22.0133 6.66209 22.2516 6.56348 22.5001 6.56348C22.7485 6.56348 22.9868 6.66209 23.1626 6.83765Z" fill="white"/>
</svg>
