<svg width="66" height="66" viewBox="0 0 66 66" fill="none" xmlns="http://www.w3.org/2000/svg">
<g clip-path="url(#clip0_375_15779)">
<path d="M33 31.3171C30.5085 26.4743 23.727 17.4461 17.4213 12.9966C11.3795 8.73409 9.07775 9.46834 7.568 10.1558C5.819 10.9396 5.5 13.6263 5.5 15.2021C5.5 16.7833 6.36625 28.1518 6.93 30.0521C8.8 36.3221 15.4385 38.4396 21.56 37.7603C12.595 39.0886 4.62825 42.3528 15.07 53.9798C26.5595 65.8736 30.8165 51.4306 33 44.1073C35.1835 51.4306 37.697 65.3538 50.721 53.9798C60.5 44.1073 53.4077 39.0886 44.4427 37.7603C50.5615 38.4396 57.2027 36.3221 59.07 30.0521C59.6337 28.1546 60.5 16.7833 60.5 15.2048C60.5 13.6236 60.181 10.9423 58.432 10.1503C56.9222 9.46834 54.6205 8.72859 48.5788 12.9911C42.273 17.4488 35.4888 26.4771 33 31.3171Z" fill="white"/>
</g>
<defs>
<clipPath id="clip0_375_15779">
<rect width="66" height="66" fill="white"/>
</clipPath>
</defs>
</svg>
