<svg width="30" height="30" viewBox="0 0 30 30" fill="none" xmlns="http://www.w3.org/2000/svg">
<path d="M3.75 26.25V23.75H6.25V6.25C6.25 5.5625 6.495 4.97417 6.985 4.485C7.475 3.99583 8.06333 3.75083 8.75 3.75H21.25C21.9375 3.75 22.5263 3.995 23.0163 4.485C23.5063 4.975 23.7508 5.56333 23.75 6.25V23.75H26.25V26.25H3.75ZM18.75 23.75H21.25V6.25H15.625V4.875C16.5417 5.04167 17.2917 5.46875 17.875 6.15625C18.4583 6.84375 18.75 7.64583 18.75 8.5625V23.75ZM13.75 16.25C14.1042 16.25 14.4013 16.13 14.6413 15.89C14.8813 15.65 15.0008 15.3533 15 15C14.9992 14.6467 14.8792 14.35 14.64 14.11C14.4008 13.87 14.1042 13.75 13.75 13.75C13.3958 13.75 13.0992 13.87 12.86 14.11C12.6208 14.35 12.5008 14.6467 12.5 15C12.4992 15.3533 12.6192 15.6504 12.86 15.8913C13.1008 16.1321 13.3975 16.2517 13.75 16.25Z" fill="white"/>
</svg>
