<svg width="30" height="30" viewBox="0 0 30 30" fill="none" xmlns="http://www.w3.org/2000/svg">
<path d="M12.4041 4.34196C12.7396 3.35759 12.1945 2.29704 11.1943 1.96891C10.194 1.64079 9.10389 2.17399 8.76847 3.15251L1.1018 25.6525C0.766387 26.6369 1.31144 27.6974 2.3117 28.0256C3.31196 28.3537 4.40206 27.8205 4.73748 26.842L12.4041 4.34196ZM16.6508 1.8986C15.6086 1.72868 14.6203 2.42009 14.4466 3.43962L10.6133 25.9396C10.4396 26.9591 11.1463 27.9259 12.1885 28.0959C13.2307 28.2658 14.219 27.5744 14.3927 26.5549L18.226 4.05485C18.3997 3.03532 17.6929 2.06852 16.6508 1.8986ZM22.0833 1.87516C21.0232 1.87516 20.1666 2.71305 20.1666 3.75016V26.2502C20.1666 27.2873 21.0232 28.1252 22.0833 28.1252C23.1435 28.1252 24 27.2873 24 26.2502V3.75016C24 2.71305 23.1435 1.87516 22.0833 1.87516Z" fill="white"/>
</svg>
