<svg width="66" height="66" viewBox="0 0 66 66" fill="none" xmlns="http://www.w3.org/2000/svg">
<path d="M57.585 38.5C56.815 42.3775 50.875 46.64 43.9175 47.465C40.315 47.8775 36.7675 48.29 33 48.125C26.8125 47.8225 22 46.64 22 46.64V48.345C22.88 54.45 28.105 54.8075 33.0825 55C38.0875 55.1375 42.5425 53.735 42.5425 53.735L42.7625 58.2725C42.7625 58.2725 39.2425 60.1425 33 60.5C29.5625 60.6925 25.2725 60.4175 20.295 59.125C9.51503 56.2375 7.64503 44.715 7.37003 33L7.34253 23.5675C7.34253 11.6325 15.125 8.14 15.125 8.14C19.1125 6.325 25.8775 5.5 32.9175 5.5H33.0825C40.1225 5.5 46.8875 6.325 50.875 8.14C50.875 8.14 58.6575 11.6325 58.6575 23.5675C58.6575 23.5675 58.7675 32.395 57.585 38.5ZM49.5 24.5025C49.5 21.5325 48.675 19.25 47.1625 17.4625C45.6225 15.73 43.5875 14.8225 41.03 14.8225C38.115 14.8225 35.8875 15.95 34.375 18.205L33 20.625L31.625 18.205C30.085 15.95 27.885 14.8225 24.9425 14.8225C22.4125 14.8225 20.3775 15.73 18.81 17.4625C17.2975 19.25 16.5 21.5325 16.5 24.5025V38.9675H22.275V24.915C22.275 22 23.5125 20.46 26.015 20.46C28.765 20.46 30.14 22.2475 30.14 25.7675V33.44H35.8325V25.7675C35.8325 22.2475 37.2075 20.46 39.985 20.46C42.46 20.46 43.6975 22 43.6975 24.915V38.9675H49.5V24.5025Z" fill="white"/>
</svg>
