<svg width="30" height="30" viewBox="0 0 30 30" fill="none" xmlns="http://www.w3.org/2000/svg">
<path d="M7.5 23.7498H12.115V17.4036C12.115 17.1177 12.2121 16.8781 12.4063 16.6848C12.5996 16.4906 12.8392 16.3936 13.125 16.3936H16.875C17.1608 16.3936 17.4008 16.4906 17.595 16.6848C17.7883 16.8781 17.885 17.1177 17.885 17.4036V23.7498H22.5V12.8848C22.5 12.7565 22.4721 12.6398 22.4163 12.5348C22.3604 12.4298 22.2842 12.3381 22.1875 12.2598L15.4575 7.1873C15.3292 7.07564 15.1767 7.01981 15 7.01981C14.8233 7.01981 14.6713 7.07564 14.5438 7.1873L7.8125 12.2598C7.71667 12.3398 7.64042 12.4315 7.58375 12.5348C7.52708 12.6381 7.49917 12.7548 7.5 12.8848V23.7498ZM6.25 23.7498V12.8848C6.25 12.5648 6.32167 12.2619 6.465 11.9761C6.60833 11.6902 6.80583 11.4548 7.0575 11.2698L13.7888 6.17231C14.1413 5.90314 14.5437 5.76855 14.9962 5.76855C15.4487 5.76855 15.8537 5.90314 16.2112 6.17231L22.9425 11.2686C23.195 11.4536 23.3925 11.6894 23.535 11.9761C23.6783 12.2619 23.75 12.5648 23.75 12.8848V23.7498C23.75 24.0848 23.6254 24.3769 23.3763 24.6261C23.1271 24.8752 22.835 24.9998 22.5 24.9998H17.645C17.3583 24.9998 17.1183 24.9031 16.925 24.7098C16.7317 24.5156 16.635 24.2756 16.635 23.9898V17.6448H13.365V23.9898C13.365 24.2765 13.2683 24.5165 13.075 24.7098C12.8817 24.9031 12.6421 24.9998 12.3563 24.9998H7.5C7.165 24.9998 6.87292 24.8752 6.62375 24.6261C6.37458 24.3769 6.25 24.0848 6.25 23.7498Z" fill="white"/>
</svg>
