<svg width="30" height="30" viewBox="0 0 30 30" fill="none" xmlns="http://www.w3.org/2000/svg">
<path d="M6.25 23.7498V12.8848C6.25 12.5648 6.32167 12.2619 6.465 11.9761C6.60833 11.6902 6.80583 11.4548 7.0575 11.2698L13.7888 6.17231C14.1413 5.90314 14.5437 5.76855 14.9962 5.76855C15.4487 5.76855 15.8537 5.90314 16.2112 6.17231L22.9425 11.2686C23.195 11.4536 23.3925 11.6894 23.535 11.9761C23.6783 12.2619 23.75 12.5648 23.75 12.8848V23.7498C23.75 24.0848 23.6254 24.3769 23.3763 24.6261C23.1271 24.8752 22.835 24.9998 22.5 24.9998H18.27C17.9833 24.9998 17.7433 24.9031 17.55 24.7098C17.3567 24.5156 17.26 24.2756 17.26 23.9898V18.0286C17.26 17.7427 17.1633 17.5031 16.97 17.3098C16.7758 17.1156 16.5358 17.0186 16.25 17.0186H13.75C13.4642 17.0186 13.2246 17.1156 13.0313 17.3098C12.8371 17.5031 12.74 17.7427 12.74 18.0286V23.9911C12.74 24.2769 12.6433 24.5165 12.45 24.7098C12.2567 24.9031 12.0171 24.9998 11.7313 24.9998H7.5C7.165 24.9998 6.87292 24.8752 6.62375 24.6261C6.37458 24.3769 6.25 24.0848 6.25 23.7498Z" fill="white"/>
</svg>
