<svg width="30" height="30" viewBox="0 0 30 30" fill="none" xmlns="http://www.w3.org/2000/svg">
<path d="M21.25 27.5C20.2083 27.5 19.3229 27.1354 18.5938 26.4062C17.8646 25.6771 17.5 24.7917 17.5 23.75C17.5 23.625 17.5312 23.3333 17.5937 22.875L8.8125 17.75C8.47917 18.0625 8.09375 18.3075 7.65625 18.485C7.21875 18.6625 6.75 18.7508 6.25 18.75C5.20833 18.75 4.32292 18.3854 3.59375 17.6562C2.86458 16.9271 2.5 16.0417 2.5 15C2.5 13.9583 2.86458 13.0729 3.59375 12.3438C4.32292 11.6146 5.20833 11.25 6.25 11.25C6.75 11.25 7.21875 11.3388 7.65625 11.5163C8.09375 11.6938 8.47917 11.9383 8.8125 12.25L17.5937 7.125C17.5521 6.97917 17.5262 6.83875 17.5162 6.70375C17.5062 6.56875 17.5008 6.4175 17.5 6.25C17.5 5.20833 17.8646 4.32292 18.5938 3.59375C19.3229 2.86458 20.2083 2.5 21.25 2.5C22.2917 2.5 23.1771 2.86458 23.9062 3.59375C24.6354 4.32292 25 5.20833 25 6.25C25 7.29167 24.6354 8.17708 23.9062 8.90625C23.1771 9.63542 22.2917 10 21.25 10C20.75 10 20.2812 9.91125 19.8438 9.73375C19.4063 9.55625 19.0208 9.31167 18.6875 9L9.90625 14.125C9.94792 14.2708 9.97417 14.4117 9.985 14.5475C9.99583 14.6833 10.0008 14.8342 10 15C9.99917 15.1658 9.99417 15.3171 9.985 15.4537C9.97583 15.5904 9.94958 15.7308 9.90625 15.875L18.6875 21C19.0208 20.6875 19.4063 20.4429 19.8438 20.2662C20.2812 20.0896 20.75 20.0008 21.25 20C22.2917 20 23.1771 20.3646 23.9062 21.0938C24.6354 21.8229 25 22.7083 25 23.75C25 24.7917 24.6354 25.6771 23.9062 26.4062C23.1771 27.1354 22.2917 27.5 21.25 27.5ZM21.25 25C21.6042 25 21.9012 24.8804 22.1412 24.6412C22.3812 24.4021 22.5008 24.105 22.5 23.75C22.4992 23.395 22.3792 23.0983 22.14 22.86C21.9008 22.6217 21.6042 22.5017 21.25 22.5C20.8958 22.4983 20.5992 22.6183 20.36 22.86C20.1208 23.1017 20.0008 23.3983 20 23.75C19.9992 24.1017 20.1192 24.3987 20.36 24.6412C20.6008 24.8837 20.8975 25.0033 21.25 25ZM6.25 16.25C6.60417 16.25 6.90125 16.13 7.14125 15.89C7.38125 15.65 7.50083 15.3533 7.5 15C7.49917 14.6467 7.37917 14.35 7.14 14.11C6.90083 13.87 6.60417 13.75 6.25 13.75C5.89583 13.75 5.59917 13.87 5.36 14.11C5.12083 14.35 5.00083 14.6467 5 15C4.99917 15.3533 5.11917 15.6504 5.36 15.8913C5.60083 16.1321 5.8975 16.2517 6.25 16.25ZM21.25 7.5C21.6042 7.5 21.9012 7.38 22.1412 7.14C22.3812 6.9 22.5008 6.60333 22.5 6.25C22.4992 5.89667 22.3792 5.6 22.14 5.36C21.9008 5.12 21.6042 5 21.25 5C20.8958 5 20.5992 5.12 20.36 5.36C20.1208 5.6 20.0008 5.89667 20 6.25C19.9992 6.60333 20.1192 6.90042 20.36 7.14125C20.6008 7.38208 20.8975 7.50167 21.25 7.5Z" fill="white"/>
</svg>
