<svg width="30" height="30" viewBox="0 0 30 30" fill="none" xmlns="http://www.w3.org/2000/svg">
<path d="M15 16.25C13.3424 16.25 11.7527 15.5915 10.5806 14.4194C9.40848 13.2473 8.75 11.6576 8.75 10H11.25C11.25 10.9946 11.6451 11.9484 12.3483 12.6517C13.0516 13.3549 14.0054 13.75 15 13.75C15.9946 13.75 16.9484 13.3549 17.6517 12.6517C18.3549 11.9484 18.75 10.9946 18.75 10H21.25C21.25 11.6576 20.5915 13.2473 19.4194 14.4194C18.2473 15.5915 16.6576 16.25 15 16.25ZM15 3.75C15.9946 3.75 16.9484 4.14509 17.6517 4.84835C18.3549 5.55161 18.75 6.50544 18.75 7.5H11.25C11.25 6.50544 11.6451 5.55161 12.3483 4.84835C13.0516 4.14509 14.0054 3.75 15 3.75ZM23.75 7.5H21.25C21.25 6.67924 21.0883 5.86651 20.7742 5.10823C20.4602 4.34994 19.9998 3.66095 19.4194 3.08058C18.8391 2.50022 18.1501 2.03984 17.3918 1.72575C16.6335 1.41166 15.8208 1.25 15 1.25C13.3424 1.25 11.7527 1.90848 10.5806 3.08058C9.40848 4.25269 8.75 5.8424 8.75 7.5H6.25C4.8625 7.5 3.75 8.6125 3.75 10V25C3.75 25.663 4.01339 26.2989 4.48223 26.7678C4.95107 27.2366 5.58696 27.5 6.25 27.5H23.75C24.413 27.5 25.0489 27.2366 25.5178 26.7678C25.9866 26.2989 26.25 25.663 26.25 25V10C26.25 9.33696 25.9866 8.70107 25.5178 8.23223C25.0489 7.76339 24.413 7.5 23.75 7.5Z" fill="white"/>
</svg>
