<svg width="30" height="30" viewBox="0 0 30 30" fill="none" xmlns="http://www.w3.org/2000/svg">
<path fill-rule="evenodd" clip-rule="evenodd" d="M11.7563 3.62103C12.6255 2.88033 13.7222 2.45952 14.8638 2.42859C16.0054 2.39766 17.1232 2.75848 18.0313 3.45103L18.2438 3.62103L18.7138 4.02103C19.0559 4.31307 19.4705 4.5074 19.9138 4.58353L20.1363 4.61103L20.7525 4.66103C21.8941 4.75212 22.9698 5.23233 23.7998 6.02139C24.6299 6.81044 25.1638 7.86051 25.3125 8.99603L25.3388 9.24603L25.3888 9.86353C25.4242 10.3114 25.5796 10.7415 25.8388 11.1085L25.9763 11.286L26.3788 11.756C27.1195 12.6253 27.5403 13.7219 27.5712 14.8635C27.6021 16.0051 27.2413 17.1229 26.5488 18.031L26.3788 18.2435L25.9775 18.7135C25.6855 19.0556 25.4912 19.4702 25.415 19.9135L25.3875 20.136L25.3388 20.7523C25.2477 21.8939 24.7675 22.9696 23.9784 23.7996C23.1894 24.6296 22.1393 25.1636 21.0038 25.3123L20.7525 25.3385L20.1363 25.3885C19.6884 25.4239 19.2583 25.5794 18.8913 25.8385L18.7138 25.9773L18.2425 26.3773C17.3734 27.1182 16.2769 27.5392 15.1352 27.5704C13.9936 27.6015 12.8758 27.2409 11.9675 26.5485L11.7563 26.3785L11.2863 25.9773C10.9442 25.6852 10.5296 25.4909 10.0863 25.4148L9.86378 25.3885L9.24753 25.3385C8.10594 25.2474 7.03021 24.7672 6.20021 23.9782C5.3702 23.1891 4.83621 22.1391 4.68753 21.0035L4.66128 20.7535L4.61128 20.136C4.57588 19.6881 4.42042 19.2581 4.16128 18.891L4.02253 18.7135L3.62128 18.2423C2.88057 17.373 2.45977 16.2764 2.42884 15.1348C2.39791 13.9932 2.75872 12.8754 3.45128 11.9673L3.62128 11.756L4.02128 11.286C4.31332 10.9439 4.50764 10.5294 4.58378 10.086L4.61128 9.86353L4.66128 9.24728C4.75236 8.10569 5.23257 7.02997 6.02163 6.19996C6.81068 5.36995 7.86075 4.83597 8.99628 4.68728L9.24628 4.66103L9.86378 4.61103C10.3117 4.57563 10.7418 4.42018 11.1088 4.16103L11.2863 4.02228L11.7563 3.62103ZM18.125 16.2498C17.6277 16.2498 17.1508 16.4473 16.7992 16.799C16.4476 17.1506 16.25 17.6275 16.25 18.1248C16.25 18.6221 16.4476 19.099 16.7992 19.4506C17.1508 19.8022 17.6277 19.9998 18.125 19.9998C18.6223 19.9998 19.0992 19.8022 19.4509 19.4506C19.8025 19.099 20 18.6221 20 18.1248C20 17.6275 19.8025 17.1506 19.4509 16.799C19.0992 16.4473 18.6223 16.2498 18.125 16.2498ZM17.8663 10.366L10.3663 17.866C10.2469 17.9813 10.1517 18.1193 10.0861 18.2718C10.0206 18.4243 9.98616 18.5883 9.98471 18.7543C9.98327 18.9203 10.0149 19.0849 10.0777 19.2385C10.1406 19.3921 10.2334 19.5317 10.3508 19.649C10.4681 19.7664 10.6077 19.8592 10.7613 19.9221C10.915 19.9849 11.0796 20.0165 11.2455 20.0151C11.4115 20.0137 11.5755 19.9792 11.728 19.9137C11.8805 19.8481 12.0185 19.7529 12.1338 19.6335L19.6338 12.1335C19.8615 11.8978 19.9875 11.582 19.9846 11.2543C19.9818 10.9265 19.8503 10.613 19.6185 10.3813C19.3868 10.1495 19.0733 10.018 18.7455 10.0152C18.4178 10.0123 18.102 10.1383 17.8663 10.366ZM11.875 9.99978C11.3777 9.99978 10.9008 10.1973 10.5492 10.549C10.1976 10.9006 10 11.3775 10 11.8748C10 12.3721 10.1976 12.849 10.5492 13.2006C10.9008 13.5522 11.3777 13.7498 11.875 13.7498C12.3723 13.7498 12.8492 13.5522 13.2009 13.2006C13.5525 12.849 13.75 12.3721 13.75 11.8748C13.75 11.3775 13.5525 10.9006 13.2009 10.549C12.8492 10.1973 12.3723 9.99978 11.875 9.99978Z" fill="white"/>
</svg>
