<svg width="30" height="30" viewBox="0 0 30 30" fill="none" xmlns="http://www.w3.org/2000/svg">
<path d="M26.25 21.25V15C26.25 13.5226 25.959 12.0597 25.3936 10.6948C24.8283 9.3299 23.9996 8.08971 22.955 7.04505C21.9103 6.00039 20.6701 5.17172 19.3052 4.60636C17.9403 4.04099 16.4774 3.75 15 3.75C13.5226 3.75 12.0597 4.04099 10.6948 4.60636C9.3299 5.17172 8.08971 6.00039 7.04505 7.04505C6.00039 8.08971 5.17172 9.3299 4.60636 10.6948C4.04099 12.0597 3.75 13.5226 3.75 15V21.25" stroke="white" stroke-width="1.5" stroke-linecap="round" stroke-linejoin="round"/>
<path d="M20 18.6977C20 18.059 20 17.739 20.0738 17.4852C20.2425 16.9002 20.6863 16.4552 21.2363 16.3177C22.8263 15.9202 23.1488 17.3977 24.29 17.8577L24.3763 17.8927C25.6163 18.414 26.2475 19.7402 26.245 21.0852V21.5315C26.2413 22.719 25.6075 23.8252 24.5538 24.3715C23.38 24.9777 22.9888 26.5615 21.285 26.1965C20.7388 26.079 20.2888 25.6602 20.0975 25.0927C20 24.804 20 24.4252 20 23.6727V18.6977ZM10 23.8027C10 24.4415 10 24.7602 9.92626 25.0152C9.75751 25.6002 9.31376 26.0452 8.76376 26.1827C7.17376 26.5802 6.85126 25.1015 5.71001 24.6427L5.63251 24.6115C4.38501 24.089 3.75251 22.7615 3.75501 21.4152V20.9602C3.75876 19.7777 4.39126 18.6752 5.44626 18.129C6.62001 17.5227 7.01126 15.939 8.71501 16.304C9.26126 16.4215 9.71126 16.8402 9.90251 17.4077C10 17.6965 10 18.074 10 18.8277V23.8027Z" stroke="white" stroke-width="1.5" stroke-linecap="round" stroke-linejoin="round"/>
</svg>
