<svg width="66" height="66" viewBox="0 0 66 66" fill="none" xmlns="http://www.w3.org/2000/svg">
<g clip-path="url(#clip0_375_15778)">
<path d="M29.5625 35.86C29.5625 34.2925 28.27 33 26.7025 33C25.135 33 23.8425 34.2925 23.8425 35.86C23.8425 36.6185 24.1439 37.346 24.6802 37.8823C25.2166 38.4187 25.944 38.72 26.7025 38.72C27.461 38.72 28.1885 38.4187 28.7249 37.8823C29.2612 37.346 29.5625 36.6185 29.5625 35.86ZM38.7475 42.3775C37.51 43.615 34.87 44.055 33 44.055C31.13 44.055 28.49 43.615 27.2525 42.3775C27.1856 42.3059 27.1047 42.2488 27.0149 42.2098C26.925 42.1707 26.828 42.1506 26.73 42.1506C26.632 42.1506 26.5351 42.1707 26.4452 42.2098C26.3553 42.2488 26.2744 42.3059 26.2075 42.3775C26.1359 42.4444 26.0788 42.5253 26.0398 42.6152C26.0008 42.7051 25.9806 42.802 25.9806 42.9C25.9806 42.998 26.0008 43.0949 26.0398 43.1848C26.0788 43.2747 26.1359 43.3556 26.2075 43.4225C28.16 45.375 31.9 45.54 33 45.54C34.1 45.54 37.84 45.375 39.7925 43.4225C39.8641 43.3556 39.9212 43.2747 39.9603 43.1848C39.9993 43.0949 40.0195 42.998 40.0195 42.9C40.0195 42.802 39.9993 42.7051 39.9603 42.6152C39.9212 42.5253 39.8641 42.4444 39.7925 42.3775C39.5175 42.1025 39.05 42.1025 38.7475 42.3775ZM39.2975 33C37.73 33 36.4375 34.2925 36.4375 35.86C36.4375 37.4275 37.73 38.72 39.2975 38.72C40.865 38.72 42.1575 37.4275 42.1575 35.86C42.1575 34.2925 40.8925 33 39.2975 33Z" fill="white"/>
<path d="M33 5.5C17.82 5.5 5.5 17.82 5.5 33C5.5 48.18 17.82 60.5 33 60.5C48.18 60.5 60.5 48.18 60.5 33C60.5 17.82 48.18 5.5 33 5.5ZM48.95 36.6575C49.005 37.0425 49.0325 37.455 49.0325 37.8675C49.0325 44.0275 41.855 49.0325 33 49.0325C24.145 49.0325 16.9675 44.0275 16.9675 37.8675C16.9675 37.455 16.995 37.0425 17.05 36.6575C15.6475 36.025 14.685 34.6225 14.685 33C14.6809 32.2114 14.91 31.4392 15.3433 30.7804C15.7767 30.1216 16.3951 29.6055 17.1208 29.297C17.8466 28.9885 18.6473 28.9013 19.4224 29.0464C20.1975 29.1915 20.9125 29.5624 21.4775 30.1125C24.255 28.105 28.105 26.84 32.3675 26.7025L34.4025 17.105C34.43 16.9125 34.54 16.7475 34.705 16.665C34.87 16.555 35.0625 16.5275 35.255 16.555L41.91 17.985C42.1357 17.5273 42.4797 17.1384 42.9064 16.8585C43.3331 16.5787 43.8269 16.4181 44.3366 16.3934C44.8463 16.3687 45.3533 16.4808 45.8051 16.7181C46.2568 16.9554 46.6369 17.3093 46.9057 17.743C47.1746 18.1767 47.3226 18.6744 47.3343 19.1846C47.346 19.6947 47.2209 20.1987 46.9722 20.6442C46.7234 21.0898 46.36 21.4607 45.9196 21.7184C45.4791 21.9761 44.9778 22.1113 44.4675 22.11C42.9275 22.11 41.69 20.9 41.6075 19.3875L35.64 18.1225L33.825 26.7025C38.0325 26.84 41.8 28.1325 44.55 30.1125C44.9716 29.7099 45.476 29.4043 46.028 29.2171C46.58 29.0299 47.1663 28.9655 47.7458 29.0285C48.3253 29.0915 48.884 29.2803 49.3829 29.5818C49.8818 29.8833 50.3087 30.2902 50.6339 30.7739C50.9592 31.2577 51.1748 31.8067 51.2656 32.3824C51.3565 32.9582 51.3205 33.5469 51.1601 34.1073C50.9997 34.6677 50.7188 35.1863 50.3371 35.6268C49.9553 36.0673 49.4819 36.4191 48.95 36.6575Z" fill="white"/>
</g>
<defs>
<clipPath id="clip0_375_15778">
<rect width="66" height="66" fill="white"/>
</clipPath>
</defs>
</svg>
