<svg width="30" height="30" viewBox="0 0 30 30" fill="none" xmlns="http://www.w3.org/2000/svg">
<path fill-rule="evenodd" clip-rule="evenodd" d="M13.2425 2.89897C13.7913 2.63664 14.3918 2.50049 15 2.50049C15.6083 2.50049 16.2088 2.63664 16.7575 2.89897C17.2413 3.13022 17.6825 3.50772 18.2963 4.03022L18.3938 4.11272C18.6913 4.36647 18.785 4.44397 18.88 4.50772C19.1213 4.67022 19.3925 4.78147 19.6763 4.83772C19.7888 4.86022 19.91 4.87147 20.3 4.90147L20.4263 4.91147C21.2288 4.97522 21.8088 5.02147 22.3138 5.19897C22.8874 5.40225 23.4085 5.73107 23.8388 6.16142C24.2692 6.59178 24.598 7.1128 24.8013 7.68647C24.9788 8.19147 25.0238 8.77147 25.0888 9.57397L25.0988 9.70022C25.1288 10.0902 25.14 10.2127 25.1625 10.324C25.2188 10.609 25.3313 10.8802 25.4925 11.1215C25.5563 11.2152 25.6338 11.309 25.8875 11.6065L25.97 11.704C26.4938 12.3165 26.87 12.759 27.1013 13.2415C27.6325 14.354 27.6325 15.6465 27.1013 16.7577C26.8713 17.2415 26.4938 17.6827 25.97 18.2965L25.8875 18.394C25.7478 18.5493 25.616 18.7116 25.4925 18.8802C25.33 19.1215 25.2188 19.3927 25.1625 19.6765C25.14 19.789 25.13 19.9102 25.0988 20.3002L25.0875 20.4265C25.025 21.229 24.9788 21.809 24.8 22.314C24.5977 22.8879 24.2693 23.4093 23.8391 23.8397C23.4088 24.2702 22.8876 24.5988 22.3138 24.8015C21.8088 24.979 21.2288 25.024 20.4263 25.089L20.3 25.099C20.0912 25.1098 19.883 25.131 19.6763 25.1627C19.3921 25.2204 19.1217 25.3324 18.88 25.4927C18.711 25.6161 18.5483 25.748 18.3925 25.8877L18.2963 25.9702C17.6838 26.494 17.2413 26.8702 16.7588 27.1015C16.2099 27.364 15.6091 27.5002 15.0007 27.5002C14.3922 27.5002 13.7914 27.364 13.2425 27.1015C12.7588 26.8715 12.3175 26.494 11.7038 25.9702L11.6063 25.8877C11.4513 25.748 11.2894 25.6162 11.1213 25.4927C10.8792 25.3323 10.6084 25.2202 10.3238 25.1627C10.1171 25.131 9.90888 25.1098 9.70003 25.099L9.57378 25.0877C8.77128 25.0252 8.19128 24.979 7.68628 24.8002C7.11231 24.5979 6.59095 24.2695 6.1605 23.8393C5.73004 23.409 5.40143 22.8878 5.19878 22.314C5.02128 21.809 4.97503 21.229 4.91128 20.4265L4.90128 20.3002C4.89048 20.0914 4.8692 19.8832 4.83753 19.6765C4.77987 19.3923 4.66781 19.1219 4.50753 18.8802C4.3841 18.7112 4.25227 18.5485 4.11253 18.3927L4.03003 18.2965C3.50753 17.684 3.13003 17.2415 2.89878 16.759C2.63626 16.21 2.5 15.6093 2.5 15.0008C2.5 14.3924 2.63626 13.7916 2.89878 13.2427C3.13003 12.759 3.50753 12.3177 4.03003 11.704L4.11253 11.6065C4.25221 11.4515 4.38404 11.2896 4.50753 11.1215C4.67003 10.8802 4.78128 10.609 4.83753 10.324C4.86003 10.2115 4.87128 10.0902 4.90128 9.70022L4.91128 9.57397C4.97503 8.77147 5.02128 8.19147 5.19878 7.68647C5.40127 7.11237 5.72982 6.59093 6.16028 6.16047C6.59074 5.73001 7.11218 5.40146 7.68628 5.19897C8.19128 5.02147 8.77128 4.97522 9.57378 4.91147L9.70003 4.90147C9.90888 4.89066 10.1171 4.86939 10.3238 4.83772C10.6088 4.78147 10.88 4.66897 11.1213 4.50772C11.215 4.44397 11.3088 4.36647 11.6063 4.11272L11.7038 4.03022C12.3163 3.50772 12.76 3.13022 13.2425 2.89897ZM15.945 4.59647C15.6495 4.45565 15.3262 4.38257 14.9988 4.38257C14.6714 4.38257 14.3481 4.45565 14.0525 4.59647C13.8213 4.70647 13.5775 4.90522 12.8263 5.54397L12.7888 5.57522C12.5425 5.78522 12.3638 5.93897 12.1675 6.07022C11.7188 6.37022 11.2163 6.57897 10.6863 6.68272C10.455 6.72897 10.22 6.74772 9.89628 6.77397L9.84878 6.77772C8.86503 6.85647 8.55378 6.88897 8.31128 6.97397C7.68628 7.19522 7.19378 7.68647 6.97378 8.31272C6.88628 8.55522 6.85503 8.86647 6.77628 9.85022L6.77253 9.89772C6.74753 10.2215 6.72753 10.4565 6.68253 10.6877C6.57753 11.2177 6.37003 11.7202 6.07003 12.169C5.93753 12.3652 5.78378 12.544 5.57378 12.7915L5.54253 12.8277C4.90378 13.5777 4.70503 13.8227 4.59503 14.0527C4.45401 14.3485 4.38083 14.672 4.38083 14.9996C4.38083 15.3272 4.45401 15.6507 4.59503 15.9465C4.70503 16.1777 4.90378 16.4215 5.54253 17.1727L5.57378 17.2102C5.78378 17.4565 5.93753 17.6352 6.06878 17.8315C6.36878 18.2802 6.57753 18.7827 6.68128 19.3127C6.72753 19.544 6.74628 19.779 6.77253 20.1027L6.77628 20.1502C6.85503 21.134 6.88753 21.4452 6.97253 21.6877C7.19378 22.3127 7.68503 22.8052 8.31128 23.0252C8.55378 23.1127 8.86503 23.144 9.84878 23.2227L9.89628 23.2265C10.22 23.2515 10.455 23.2715 10.6863 23.3165C11.2163 23.4215 11.7188 23.629 12.1675 23.929C12.3638 24.0615 12.5425 24.2152 12.79 24.4252L12.8263 24.4565C13.5763 25.0952 13.8213 25.294 14.0513 25.404C14.347 25.545 14.6705 25.6182 14.9982 25.6182C15.3258 25.6182 15.6493 25.545 15.945 25.404C16.1763 25.294 16.42 25.0952 17.1713 24.4565L17.2088 24.4252C17.455 24.2152 17.6338 24.0615 17.83 23.9302C18.2788 23.6302 18.7813 23.4215 19.3113 23.3177C19.5728 23.2733 19.8365 23.2429 20.1013 23.2265L20.1488 23.2227C21.1325 23.144 21.4438 23.1115 21.6863 23.0265C22.3113 22.8052 22.8038 22.314 23.0238 21.6877C23.1113 21.4452 23.1425 21.1327 23.2213 20.1502L23.225 20.1027C23.241 19.8376 23.271 19.5734 23.315 19.3115C23.42 18.7827 23.6275 18.2802 23.9275 17.8315C24.06 17.6352 24.2138 17.4565 24.4238 17.209L24.455 17.1727C25.0938 16.4227 25.2925 16.1777 25.4025 15.9477C25.5435 15.652 25.6167 15.3285 25.6167 15.0008C25.6167 14.6732 25.5435 14.3497 25.4025 14.054C25.2925 13.8227 25.0938 13.579 24.455 12.8277L24.4238 12.7902C24.2138 12.544 24.06 12.3652 23.9288 12.169C23.6297 11.72 23.4216 11.2168 23.3163 10.6877C23.2719 10.4262 23.2415 10.1625 23.225 9.89772L23.2213 9.85022C23.1425 8.86647 23.11 8.55522 23.025 8.31272C22.8038 7.68772 22.3125 7.19522 21.6863 6.97522C21.4438 6.88772 21.1313 6.85647 20.1488 6.77772L20.1013 6.77397C19.8361 6.758 19.572 6.72796 19.31 6.68397C18.7814 6.57846 18.2786 6.37037 17.83 6.07147C17.6338 5.93897 17.455 5.78522 17.2075 5.57522L17.1713 5.54397C16.4213 4.90522 16.1763 4.70647 15.9463 4.59647" fill="white"/>
<path fill-rule="evenodd" clip-rule="evenodd" d="M19.4288 10.5714C19.5162 10.6588 19.5856 10.7625 19.6329 10.8768C19.6802 10.991 19.7045 11.1134 19.7045 11.237C19.7045 11.3606 19.6802 11.483 19.6329 11.5972C19.5856 11.7114 19.5162 11.8152 19.4288 11.9026L11.9025 19.4276C11.7246 19.5962 11.4878 19.6887 11.2427 19.6855C10.9976 19.6822 10.7634 19.5835 10.59 19.4102C10.4165 19.2369 10.3175 19.0028 10.3141 18.7577C10.3106 18.5126 10.4029 18.2758 10.5713 18.0976L18.0975 10.5726C18.185 10.4852 18.2887 10.4159 18.4029 10.3685C18.5171 10.3212 18.6396 10.2969 18.7632 10.2969C18.8868 10.2969 19.0092 10.3212 19.1234 10.3685C19.2376 10.4159 19.3414 10.4852 19.4288 10.5726" fill="white"/>
<path d="M19.39 18.1363C19.3953 18.3044 19.3668 18.4718 19.3061 18.6286C19.2455 18.7855 19.1539 18.9285 19.0369 19.0492C18.9199 19.17 18.7799 19.266 18.625 19.3316C18.4702 19.3971 18.3038 19.4309 18.1356 19.4309C17.9675 19.4309 17.8011 19.3971 17.6462 19.3316C17.4914 19.266 17.3513 19.17 17.2343 19.0492C17.1173 18.9285 17.0258 18.7855 16.9651 18.6286C16.9045 18.4718 16.8759 18.3044 16.8813 18.1363C16.8915 17.8105 17.0282 17.5015 17.2623 17.2746C17.4964 17.0478 17.8096 16.9209 18.1356 16.9209C18.4616 16.9209 18.7748 17.0478 19.0089 17.2746C19.243 17.5015 19.3797 17.8105 19.39 18.1363ZM13.1187 11.8638C13.1241 12.0319 13.0955 12.1993 13.0349 12.3561C12.9742 12.513 12.8827 12.656 12.7657 12.7767C12.6487 12.8975 12.5086 12.9935 12.3538 13.0591C12.1989 13.1246 12.0325 13.1584 11.8644 13.1584C11.6962 13.1584 11.5298 13.1246 11.375 13.0591C11.2201 12.9935 11.0801 12.8975 10.9631 12.7767C10.8461 12.656 10.7545 12.513 10.6939 12.3561C10.6332 12.1993 10.6047 12.0319 10.61 11.8638C10.6203 11.538 10.757 11.229 10.9911 11.0021C11.2252 10.7753 11.5384 10.6484 11.8644 10.6484C12.1904 10.6484 12.5036 10.7753 12.7377 11.0021C12.9718 11.229 13.1085 11.538 13.1187 11.8638Z" fill="white"/>
</svg>
