<svg width="30" height="30" viewBox="0 0 30 30" fill="none" xmlns="http://www.w3.org/2000/svg">
<path d="M15 10C15 10 15 10 15.95 8.75C17.05 7.3 18.675 6.25 20.625 6.25C23.7375 6.25 26.25 8.7625 26.25 11.875C26.25 13.0375 25.9 14.1125 25.3 15C24.2875 16.5125 15 26.25 15 26.25C15 26.25 5.7125 16.5125 4.7 15C4.1 14.1125 3.75 13.0375 3.75 11.875C3.75 8.7625 6.2625 6.25 9.375 6.25C11.325 6.25 12.9625 7.3 14.05 8.75C15 10 15 10 15 10Z" fill="black"/>
<path d="M15 10C15 10 15 10 14.05 8.75C12.95 7.3 11.325 6.25 9.375 6.25C6.2625 6.25 3.75 8.7625 3.75 11.875C3.75 13.0375 4.1 14.1125 4.7 15C5.7125 16.5125 15 26.25 15 26.25M15 10C15 10 15 10 15.95 8.75C17.05 7.3 18.675 6.25 20.625 6.25C23.7375 6.25 26.25 8.7625 26.25 11.875C26.25 13.0375 25.9 14.1125 25.3 15C24.2875 16.5125 15 26.25 15 26.25" stroke="black" stroke-width="2" stroke-linecap="round" stroke-linejoin="round"/>
</svg>
