<svg width="30" height="30" viewBox="0 0 30 30" fill="none" xmlns="http://www.w3.org/2000/svg">
<g clip-path="url(#clip0_548_4033)">
<path fill-rule="evenodd" clip-rule="evenodd" d="M10.3662 15.8839C10.1319 15.6495 10.0002 15.3316 10.0002 15.0002C10.0002 14.6687 10.1319 14.3508 10.3662 14.1164L17.4375 7.04518C17.5528 6.9258 17.6907 6.83057 17.8432 6.76506C17.9957 6.69955 18.1598 6.66506 18.3257 6.66362C18.4917 6.66218 18.6563 6.69381 18.8099 6.75666C18.9635 6.81951 19.1031 6.91233 19.2205 7.02969C19.3378 7.14706 19.4307 7.28662 19.4935 7.44024C19.5564 7.59386 19.588 7.75846 19.5865 7.92444C19.5851 8.09041 19.5506 8.25443 19.4851 8.40694C19.4196 8.55944 19.3244 8.69738 19.205 8.81268L13.0175 15.0002L19.205 21.1877C19.4327 21.4234 19.5587 21.7392 19.5558 22.0669C19.553 22.3947 19.4215 22.7082 19.1898 22.94C18.958 23.1717 18.6445 23.3032 18.3167 23.306C17.989 23.3089 17.6732 23.1829 17.4375 22.9552L10.3662 15.8839Z" fill="black"/>
</g>
<defs>
<clipPath id="clip0_548_4033">
<rect width="30" height="30" fill="white"/>
</clipPath>
</defs>
</svg>
