<svg width="30" height="30" viewBox="0 0 30 30" fill="none" xmlns="http://www.w3.org/2000/svg">
<path d="M18 24V16C18 15.7348 17.8946 15.4804 17.7071 15.2929C17.5196 15.1054 17.2652 15 17 15H13C12.7348 15 12.4804 15.1054 12.2929 15.2929C12.1054 15.4804 12 15.7348 12 16V24" stroke="black" stroke-width="2" stroke-linecap="round" stroke-linejoin="round"/>
<path d="M6 13C5.99993 12.709 6.06333 12.4216 6.18579 12.1577C6.30824 11.8938 6.4868 11.6598 6.709 11.472L13.709 5.47297C14.07 5.16788 14.5274 5.00049 15 5.00049C15.4726 5.00049 15.93 5.16788 16.291 5.47297L23.291 11.472C23.5132 11.6598 23.6918 11.8938 23.8142 12.1577C23.9367 12.4216 24.0001 12.709 24 13V22C24 22.5304 23.7893 23.0391 23.4142 23.4142C23.0391 23.7893 22.5304 24 22 24H8C7.46957 24 6.96086 23.7893 6.58579 23.4142C6.21071 23.0391 6 22.5304 6 22V13Z" stroke="black" stroke-width="2" stroke-linecap="round" stroke-linejoin="round"/>
</svg>
