<svg width="30" height="30" viewBox="0 0 30 30" fill="none" xmlns="http://www.w3.org/2000/svg">
<path d="M20.7862 17.3636L21.3562 16.7973L20.0325 15.4673L19.465 16.0336L20.7862 17.3636ZM23.2675 16.5598L25.6562 17.8586L26.55 16.2111L24.1625 14.9136L23.2675 16.5598ZM26.115 20.4386L24.34 22.2048L25.6612 23.5336L27.4362 21.7686L26.115 20.4386ZM23.2575 22.7723C21.445 22.9423 16.7575 22.7911 11.68 17.7436L10.3575 19.0723C15.8975 24.5811 21.1712 24.8511 23.4325 24.6398L23.2575 22.7723ZM11.68 17.7436C6.84122 12.9311 6.03872 8.88483 5.93872 7.12858L4.06622 7.23483C4.19122 9.44483 5.18497 13.9298 10.3575 19.0723L11.68 17.7436ZM13.3987 10.0186L13.7575 9.66108L12.4375 8.33233L12.0787 8.68858L13.3987 10.0186ZM14.0425 5.11733L12.4675 3.01233L10.9662 4.13733L12.5412 6.24108L14.0425 5.11733ZM7.16622 2.55358L5.20372 4.50358L6.52622 5.83358L8.48747 3.88358L7.16622 2.55358ZM12.7387 9.35358C12.0762 8.68858 12.0762 8.68858 12.0762 8.69108H12.0737L12.07 8.69608C12.0106 8.75597 11.9574 8.82172 11.9112 8.89233C11.8437 8.99233 11.77 9.12358 11.7075 9.28983C11.5553 9.71899 11.5174 10.1803 11.5975 10.6286C11.765 11.7098 12.51 13.1386 14.4175 15.0361L15.74 13.7061C13.9537 11.9311 13.5287 10.8511 13.45 10.3411C13.4125 10.0986 13.4512 9.97858 13.4625 9.95108C13.47 9.93441 13.47 9.93191 13.4625 9.94358C13.4513 9.96083 13.4388 9.97713 13.425 9.99233L13.4125 10.0048L13.4 10.0161L12.7387 9.35358ZM14.4175 15.0361C16.3262 16.9336 17.7625 17.6736 18.845 17.8386C19.3987 17.9236 19.845 17.8561 20.1837 17.7298C20.3735 17.6604 20.5508 17.5608 20.7087 17.4348L20.7712 17.3786L20.78 17.3711L20.7837 17.3673L20.785 17.3648C20.785 17.3648 20.7862 17.3636 20.125 16.6986C19.4625 16.0336 19.4662 16.0323 19.4662 16.0323L19.4687 16.0298L19.4712 16.0273L19.4787 16.0211L19.4912 16.0086L19.5387 15.9711C19.5504 15.9636 19.5475 15.9644 19.53 15.9736C19.4987 15.9848 19.3762 16.0236 19.13 15.9861C18.6125 15.9061 17.525 15.4811 15.74 13.7061L14.4175 15.0361ZM12.4675 3.01108C11.1925 1.31108 8.68747 1.04108 7.16622 2.55358L8.48747 3.88358C9.15247 3.22233 10.3325 3.29108 10.9662 4.13733L12.4675 3.01108ZM5.93997 7.12983C5.91497 6.69733 6.11372 6.24483 6.52622 5.83483L5.20247 4.50483C4.53122 5.17233 4.00247 6.11733 4.06622 7.23483L5.93997 7.12983ZM24.34 22.2048C23.9975 22.5473 23.6275 22.7398 23.2587 22.7736L23.4325 24.6398C24.3512 24.5536 25.1025 24.0911 25.6625 23.5348L24.34 22.2048ZM13.7575 9.66108C14.9887 8.43733 15.08 6.50358 14.0437 5.11858L12.5425 6.24233C13.0462 6.91608 12.9712 7.79983 12.4362 8.33358L13.7575 9.66108ZM25.6575 17.8598C26.6787 18.4148 26.8375 19.7223 26.1162 20.4398L27.4387 21.7686C29.1137 20.1023 28.5975 17.3236 26.5512 16.2123L25.6575 17.8598ZM21.3562 16.7986C21.8362 16.3211 22.6087 16.2036 23.2687 16.5611L24.1637 14.9148C22.8087 14.1773 21.1287 14.3811 20.0337 15.4686L21.3562 16.7986Z" fill="black"/>
</svg>
