<svg width="30" height="30" viewBox="0 0 30 30" fill="none" xmlns="http://www.w3.org/2000/svg">
<g clip-path="url(#clip0_432_17932)">
<path d="M22.9864 4.0551C21.7682 2.66658 19.5661 2.07129 16.7489 2.07129H8.57271C8.29397 2.07125 8.02435 2.17067 7.81237 2.35167C7.60038 2.53268 7.45994 2.78338 7.41631 3.05869L4.01189 24.6504C3.94422 25.0761 4.27391 25.4617 4.70545 25.4617H9.75316L11.0209 17.4209L10.9815 17.6727C11.0718 17.1043 11.5579 16.6851 12.1335 16.6851H14.5322C19.2444 16.6851 22.9341 14.7712 24.0119 9.23448C24.0439 9.07073 24.0716 8.91135 24.0955 8.75564C23.9595 8.6836 23.9595 8.6836 24.0955 8.75564C24.4165 6.70923 24.0934 5.31624 22.9864 4.0551Z" fill="#27346A"/>
<path d="M12.9523 8.01845C13.0903 7.95264 13.2412 7.91858 13.3941 7.91878H19.8041C20.5631 7.91878 21.2711 7.96818 21.9181 8.07231C22.0991 8.10119 22.2792 8.13566 22.4581 8.17565C22.7117 8.23161 22.9623 8.30009 23.2091 8.38084C23.5272 8.48706 23.8234 8.61077 24.0956 8.75564C24.4165 6.70844 24.0934 5.31624 22.9864 4.0551C21.7675 2.66658 19.5661 2.07129 16.7489 2.07129H8.57201C7.9963 2.07129 7.50653 2.49042 7.41631 3.05869L4.01189 24.6496C3.94422 25.0761 4.27391 25.4611 4.70475 25.4611H9.75316L12.3832 8.78257C12.4091 8.61864 12.4744 8.46345 12.5736 8.33035C12.6727 8.19724 12.8027 8.09021 12.9523 8.01845Z" fill="#27346A"/>
<path d="M24.0115 9.2347C22.9337 14.7706 19.2441 16.6854 14.5319 16.6854H12.1325C11.5569 16.6854 11.0707 17.1046 10.9813 17.6729L9.40415 27.6707C9.34523 28.0433 9.63339 28.381 10.0104 28.381H14.2655C14.5092 28.3809 14.7449 28.2939 14.9302 28.1355C15.1156 27.9772 15.2383 27.7579 15.2764 27.5172L15.3178 27.3003L16.1198 22.2177L16.1715 21.9368C16.2096 21.696 16.3323 21.4768 16.5176 21.3184C16.7029 21.1601 16.9386 21.0731 17.1823 21.073H17.8191C21.9411 21.073 25.1686 19.3984 26.1118 14.5553C26.5055 12.5313 26.3018 10.8415 25.2603 9.65461C24.9445 9.29511 24.5522 8.99821 24.0952 8.75586C24.0704 8.91235 24.0436 9.07095 24.0115 9.2347Z" fill="#2790C3"/>
<path d="M22.9675 8.30616C22.7995 8.25709 22.6298 8.21365 22.4589 8.1759C22.2799 8.13654 22.0998 8.10232 21.9188 8.07326C21.2712 7.96843 20.5637 7.91895 19.804 7.91895H13.3947C13.2418 7.91869 13.0908 7.95303 12.953 8.0194C12.8031 8.0909 12.673 8.19786 12.5738 8.33101C12.4746 8.46416 12.4094 8.61948 12.3838 8.78352L11.0215 17.4212L10.9822 17.673C11.0718 17.1046 11.5579 16.6854 12.1336 16.6854H14.533C19.2451 16.6854 22.9347 14.7714 24.0125 9.23473C24.0446 9.07098 24.0715 8.9123 24.0963 8.75589C23.8234 8.61193 23.5279 8.48722 23.2098 8.38179C23.1295 8.35517 23.0488 8.32996 22.9676 8.30616" fill="#1F264F"/>
</g>
<defs>
<clipPath id="clip0_432_17932">
<rect width="22.3814" height="26.4031" fill="white" transform="translate(4 2)"/>
</clipPath>
</defs>
</svg>
