<svg width="30" height="30" viewBox="0 0 30 30" fill="none" xmlns="http://www.w3.org/2000/svg">
<path d="M28.8457 15.607L17.2067 3.96798C16.9896 3.74954 16.7314 3.57636 16.447 3.45848C16.1625 3.3406 15.8575 3.28036 15.5496 3.28126H4.68751C4.31455 3.28126 3.95686 3.42942 3.69314 3.69314C3.42942 3.95686 3.28126 4.31455 3.28126 4.68751V15.5496C3.28036 15.8575 3.3406 16.1625 3.45848 16.447C3.57636 16.7314 3.74954 16.9896 3.96798 17.2067L15.607 28.8457C16.0466 29.2851 16.6426 29.5319 17.2641 29.5319C17.8856 29.5319 18.4816 29.2851 18.9211 28.8457L28.8457 18.9211C29.2851 18.4816 29.5319 17.8856 29.5319 17.2641C29.5319 16.6426 29.2851 16.0466 28.8457 15.607ZM17.2641 26.5254L6.09376 15.3516V6.09376H15.3516L26.5219 17.2641L17.2641 26.5254ZM11.7188 9.84376C11.7188 10.2146 11.6088 10.5771 11.4028 10.8855C11.1967 11.1938 10.9039 11.4341 10.5613 11.576C10.2187 11.7179 9.84168 11.7551 9.47797 11.6827C9.11425 11.6104 8.78016 11.4318 8.51794 11.1696C8.25571 10.9074 8.07713 10.5733 8.00479 10.2096C7.93244 9.84584 7.96957 9.46884 8.11149 9.12623C8.2534 8.78362 8.49372 8.49078 8.80207 8.28475C9.11041 8.07873 9.47292 7.96876 9.84376 7.96876C10.341 7.96876 10.818 8.1663 11.1696 8.51794C11.5212 8.86957 11.7188 9.34648 11.7188 9.84376Z" fill="black"/>
</svg>
