<svg width="30" height="30" viewBox="0 0 30 30" fill="none" xmlns="http://www.w3.org/2000/svg">
<g clip-path="url(#clip0_548_4037)">
<path fill-rule="evenodd" clip-rule="evenodd" d="M19.6337 14.1165C19.868 14.3509 19.9997 14.6688 19.9997 15.0002C19.9997 15.3317 19.868 15.6496 19.6337 15.884L12.5624 22.9552C12.4471 23.0746 12.3092 23.1698 12.1567 23.2354C12.0042 23.3009 11.8402 23.3353 11.6742 23.3368C11.5082 23.3382 11.3436 23.3066 11.19 23.2438C11.0364 23.1809 10.8968 23.0881 10.7794 22.9707C10.6621 22.8534 10.5693 22.7138 10.5064 22.5602C10.4436 22.4065 10.4119 22.2419 10.4134 22.076C10.4148 21.91 10.4493 21.746 10.5148 21.5935C10.5803 21.441 10.6756 21.303 10.7949 21.1877L16.9824 15.0002L10.7949 8.81273C10.5672 8.57697 10.4412 8.26122 10.4441 7.93347C10.4469 7.60573 10.5784 7.29221 10.8102 7.06045C11.0419 6.82869 11.3554 6.69723 11.6832 6.69438C12.0109 6.69154 12.3267 6.81753 12.5624 7.04523L19.6337 14.1165Z" fill="black"/>
</g>
<defs>
<clipPath id="clip0_548_4037">
<rect width="30" height="30" fill="white"/>
</clipPath>
</defs>
</svg>
