<svg width="30" height="30" viewBox="0 0 30 30" fill="none" xmlns="http://www.w3.org/2000/svg">
<path d="M16.4062 14.5312V25.3125C16.4062 25.6855 16.2581 26.0431 15.9944 26.3069C15.7306 26.5706 15.373 26.7188 15 26.7188C14.627 26.7188 14.2694 26.5706 14.0056 26.3069C13.7419 26.0431 13.5938 25.6855 13.5938 25.3125V14.5312C13.5938 14.1583 13.7419 13.8006 14.0056 13.5369C14.2694 13.2732 14.627 13.125 15 13.125C15.373 13.125 15.7306 13.2732 15.9944 13.5369C16.2581 13.8006 16.4062 14.1583 16.4062 14.5312ZM23.4375 22.5C23.0645 22.5 22.7069 22.6482 22.4431 22.9119C22.1794 23.1756 22.0312 23.5333 22.0312 23.9062V25.3125C22.0313 25.6855 22.1794 26.0431 22.4431 26.3069C22.7069 26.5706 23.0645 26.7188 23.4375 26.7188C23.8105 26.7188 24.1681 26.5706 24.4319 26.3069C24.6956 26.0431 24.8437 25.6855 24.8438 25.3125V23.9062C24.8437 23.5333 24.6956 23.1756 24.4319 22.9119C24.1681 22.6482 23.8105 22.5 23.4375 22.5ZM26.25 17.8125H24.8438V4.6875C24.8437 4.31454 24.6956 3.95685 24.4319 3.69313C24.1681 3.42941 23.8105 3.28125 23.4375 3.28125C23.0645 3.28125 22.7069 3.42941 22.4431 3.69313C22.1794 3.95685 22.0313 4.31454 22.0312 4.6875V17.8125H20.625C20.252 17.8125 19.8944 17.9607 19.6306 18.2244C19.3669 18.4881 19.2188 18.8458 19.2188 19.2188C19.2188 19.5917 19.3669 19.9494 19.6306 20.2131C19.8944 20.4768 20.252 20.625 20.625 20.625H26.25C26.623 20.625 26.9806 20.4768 27.2444 20.2131C27.5081 19.9494 27.6562 19.5917 27.6562 19.2188C27.6562 18.8458 27.5081 18.4881 27.2444 18.2244C26.9806 17.9607 26.623 17.8125 26.25 17.8125ZM6.5625 18.75C6.18954 18.75 5.83185 18.8982 5.56813 19.1619C5.30441 19.4256 5.15625 19.7833 5.15625 20.1562V25.3125C5.15625 25.6855 5.30441 26.0431 5.56813 26.3069C5.83185 26.5706 6.18954 26.7188 6.5625 26.7188C6.93546 26.7188 7.29315 26.5706 7.55687 26.3069C7.82059 26.0431 7.96875 25.6855 7.96875 25.3125V20.1562C7.96875 19.7833 7.82059 19.4256 7.55687 19.1619C7.29315 18.8982 6.93546 18.75 6.5625 18.75ZM9.375 14.0625H7.96875V4.6875C7.96875 4.31454 7.82059 3.95685 7.55687 3.69313C7.29315 3.42941 6.93546 3.28125 6.5625 3.28125C6.18954 3.28125 5.83185 3.42941 5.56813 3.69313C5.30441 3.95685 5.15625 4.31454 5.15625 4.6875V14.0625H3.75C3.37704 14.0625 3.01935 14.2107 2.75563 14.4744C2.49191 14.7381 2.34375 15.0958 2.34375 15.4688C2.34375 15.8417 2.49191 16.1994 2.75563 16.4631C3.01935 16.7268 3.37704 16.875 3.75 16.875H9.375C9.74796 16.875 10.1056 16.7268 10.3694 16.4631C10.6331 16.1994 10.7812 15.8417 10.7812 15.4688C10.7812 15.0958 10.6331 14.7381 10.3694 14.4744C10.1056 14.2107 9.74796 14.0625 9.375 14.0625ZM17.8125 8.4375H16.4062V4.6875C16.4062 4.31454 16.2581 3.95685 15.9944 3.69313C15.7306 3.42941 15.373 3.28125 15 3.28125C14.627 3.28125 14.2694 3.42941 14.0056 3.69313C13.7419 3.95685 13.5938 4.31454 13.5938 4.6875V8.4375H12.1875C11.8145 8.4375 11.4569 8.58566 11.1931 8.84938C10.9294 9.1131 10.7813 9.47079 10.7812 9.84375C10.7813 10.2167 10.9294 10.5744 11.1931 10.8381C11.4569 11.1018 11.8145 11.25 12.1875 11.25H17.8125C18.1855 11.25 18.5431 11.1018 18.8069 10.8381C19.0706 10.5744 19.2188 10.2167 19.2188 9.84375C19.2188 9.47079 19.0706 9.1131 18.8069 8.84938C18.5431 8.58566 18.1855 8.4375 17.8125 8.4375Z" fill="black"/>
</svg>
