<svg width="115" height="115" viewBox="0 0 115 115" fill="none" xmlns="http://www.w3.org/2000/svg">
<path d="M102.759 44.9443C101.178 43.2957 99.5469 41.5932 99.0123 40.3039C98.5361 39.1539 98.5002 36.7865 98.4687 34.7021C98.4014 30.21 98.316 24.6217 94.3449 20.6551C90.3738 16.6885 84.79 16.6121 80.2979 16.5312C78.2135 16.4998 75.8461 16.4639 74.6961 15.9877C73.4068 15.4531 71.7043 13.8225 70.0557 12.2412C66.8752 9.19102 62.9131 5.39062 57.5 5.39062C52.0869 5.39062 48.1248 9.19102 44.9443 12.2412C43.2957 13.8225 41.5932 15.4531 40.3039 15.9877C39.1539 16.4639 36.7865 16.4998 34.7021 16.5312C30.21 16.6211 24.6217 16.684 20.6641 20.6641C16.7064 24.6441 16.6211 30.21 16.5312 34.7021C16.4998 36.7865 16.4639 39.1539 15.9877 40.3039C15.4531 41.5932 13.8225 43.2957 12.2412 44.9443C9.19102 48.1248 5.39062 52.1094 5.39062 57.5C5.39062 62.8906 9.19102 66.8752 12.2412 70.0781C13.8225 71.7268 15.4531 73.4293 15.9877 74.7186C16.4639 75.8686 16.4998 78.2359 16.5312 80.3203C16.5986 84.8125 16.684 90.4008 20.6551 94.3674C24.6262 98.334 30.21 98.4104 34.7021 98.4912C36.7865 98.5227 39.1539 98.5586 40.3039 99.0348C41.5932 99.5693 43.2957 101.2 44.9443 102.781C48.1248 105.809 52.1094 109.609 57.5 109.609C62.8906 109.609 66.8752 105.809 70.0557 102.759C71.7043 101.178 73.4068 99.5469 74.6961 99.0123C75.8461 98.5361 78.2135 98.5002 80.2979 98.4687C84.79 98.4014 90.3783 98.316 94.3449 94.3449C98.3115 90.3738 98.3879 84.79 98.4687 80.2979C98.5002 78.2135 98.5361 75.8461 99.0123 74.6961C99.5469 73.4068 101.178 71.7043 102.759 70.0557C105.809 66.8752 109.609 62.9131 109.609 57.5C109.609 52.0869 105.809 48.1248 102.759 44.9443ZM94.9783 62.5941C92.8131 64.8402 90.3604 67.4098 89.0531 70.5723C87.7863 73.627 87.7369 76.9332 87.7055 80.1361C87.6695 82.5439 87.6201 85.8457 86.7396 86.7217C85.8592 87.5977 82.5619 87.6516 80.1541 87.6875C76.9512 87.7369 73.6449 87.7863 70.5902 89.0352C67.4457 90.3424 64.8717 92.7951 62.6121 94.9604C60.9949 96.5102 58.5781 98.8281 57.5 98.8281C56.4219 98.8281 54.0051 96.5102 52.4059 94.9783C50.1598 92.8131 47.5902 90.3604 44.4277 89.0531C41.373 87.7863 38.0668 87.7369 34.8639 87.7055C32.4561 87.6695 29.1543 87.6201 28.2783 86.7396C27.4023 85.8592 27.3484 82.5619 27.3125 80.1541C27.2631 76.9512 27.2137 73.6449 25.9648 70.5902C24.6576 67.4457 22.2049 64.8717 20.0396 62.6121C18.4898 60.9949 16.1719 58.5781 16.1719 57.5C16.1719 56.4219 18.4898 54.0051 20.0217 52.4059C22.1869 50.1598 24.6396 47.5902 25.9469 44.4277C27.2137 41.373 27.2631 38.0668 27.2945 34.8639C27.3484 32.4561 27.4023 29.1543 28.3008 28.3008C29.1992 27.4473 32.4785 27.3709 34.8863 27.335C38.0893 27.2855 41.3955 27.2361 44.4502 25.9873C47.5947 24.6801 50.1687 22.2273 52.4283 20.0621C54.0051 18.4898 56.4219 16.1719 57.5 16.1719C58.5781 16.1719 60.9949 18.4898 62.5941 20.0217C64.8402 22.1869 67.4098 24.6396 70.5723 25.9469C73.627 27.2137 76.9332 27.2631 80.1361 27.2945C82.5439 27.3305 85.8457 27.3799 86.7217 28.2604C87.5977 29.1408 87.6516 32.4381 87.6875 34.8459C87.7369 38.0488 87.7863 41.3551 89.0352 44.4098C90.3424 47.5543 92.7951 50.1283 94.9604 52.3879C96.4922 53.9871 98.8102 56.4039 98.8102 57.482C98.8102 58.5602 96.5102 60.9949 94.9783 62.5941ZM79.2826 42.9049C79.7852 43.4057 80.1839 44.0008 80.456 44.656C80.7281 45.3113 80.8681 46.0138 80.8681 46.7232C80.8681 47.4327 80.7281 48.1352 80.456 48.7905C80.1839 49.4457 79.7852 50.0408 79.2826 50.5416L54.1264 75.6978C53.6256 76.2004 53.0305 76.5991 52.3752 76.8712C51.72 77.1433 51.0175 77.2834 50.308 77.2834C49.5985 77.2834 48.896 77.1433 48.2408 76.8712C47.5855 76.5991 46.9905 76.2004 46.4896 75.6978L35.7084 64.9166C35.207 64.4152 34.8092 63.8199 34.5378 63.1647C34.2665 62.5096 34.1268 61.8074 34.1268 61.0982C34.1268 60.3891 34.2665 59.6869 34.5378 59.0318C34.8092 58.3766 35.207 57.7813 35.7084 57.2799C36.2098 56.7784 36.8051 56.3807 37.4603 56.1093C38.1154 55.8379 38.8176 55.6983 39.5268 55.6983C40.2359 55.6983 40.9381 55.8379 41.5932 56.1093C42.2484 56.3807 42.8437 56.7784 43.3451 57.2799L50.3125 64.2383L71.6549 42.8914C72.1564 42.3911 72.7516 41.9945 73.4065 41.7244C74.0614 41.4543 74.7631 41.3159 75.4715 41.3171C76.18 41.3184 76.8812 41.4593 77.5351 41.7317C78.189 42.0041 78.7829 42.4028 79.2826 42.9049Z" fill="#1976D2"/>
</svg>
