<svg width="48" height="30" viewBox="0 0 48 30" fill="none" xmlns="http://www.w3.org/2000/svg">
<g clip-path="url(#clip0_639_3198)">
<path d="M17.4934 3.12744H30.459V26.1159H17.4934V3.12744Z" fill="#FF5F00"/>
<path d="M18.3167 14.6216C18.3167 9.9509 20.5393 5.80802 23.9556 3.12733C21.4449 1.17781 18.2756 0 14.8181 0C6.62681 0 0 6.53902 0 14.6216C0 22.7042 6.62681 29.2433 14.8179 29.2433C18.2754 29.2433 21.4448 28.0655 23.9556 26.1158C20.5393 23.4758 18.3167 19.2924 18.3167 14.6216Z" fill="#EB001B"/>
<path d="M47.9524 14.6216C47.9524 22.7041 41.3256 29.2433 33.1344 29.2433C29.6769 29.2433 26.5076 28.0655 23.9968 26.1158C27.4543 23.4352 29.6359 19.2924 29.6359 14.6216C29.6359 9.9509 27.4131 5.80802 23.9968 3.12733C26.5075 1.17781 29.6769 0 33.1344 0C41.3256 0 47.9524 6.57972 47.9524 14.6216Z" fill="#F79E1B"/>
</g>
<defs>
<clipPath id="clip0_639_3198">
<rect width="48" height="30" fill="white"/>
</clipPath>
</defs>
</svg>
