<svg width="93" height="30" viewBox="0 0 93 30" fill="none" xmlns="http://www.w3.org/2000/svg">
<g clip-path="url(#clip0_639_3195)">
<path d="M48.0973 9.55217C48.0443 13.7146 51.8257 16.0372 54.6742 17.4183C57.6008 18.8352 58.5838 19.7439 58.5722 21.0111C58.5504 22.9502 56.2378 23.8061 54.0737 23.8394C50.2981 23.8976 48.1028 22.8252 46.3576 22.0141L44.9975 28.3463C46.7485 29.149 49.9908 29.8492 53.3529 29.8799C61.2452 29.8799 66.4085 26.0037 66.4365 19.994C66.4674 12.3668 55.8331 11.9446 55.9057 8.53542C55.9308 7.50169 56.9222 6.39856 59.0946 6.11808C60.1699 5.97639 63.1383 5.86796 66.5037 7.40988L67.8246 1.28338C66.0147 0.627715 63.6887 -0.000117042 60.7926 -0.000117042C53.3642 -0.000117042 48.1395 3.9288 48.0973 9.55217ZM80.5169 0.527593C79.0758 0.527593 77.8613 1.36398 77.3193 2.64747L66.0456 29.4299H73.9321L75.5015 25.1146H85.1386L86.049 29.4299H93L86.9343 0.527593H80.5169ZM81.6202 8.33518L83.8962 19.1883H77.663L81.6202 8.33518ZM38.5354 0.527955L32.319 29.4295H39.8342L46.0477 0.527232L38.5354 0.527955ZM27.4179 0.527955L19.5958 20.1996L16.4316 3.47302C16.0603 1.60579 14.5941 0.527593 12.9659 0.527593H0.179098L0 1.36687C2.62507 1.93362 5.60761 2.84771 7.41457 3.82579C8.5204 4.42326 8.83573 4.94555 9.19901 6.3653L15.1921 29.4299H23.1338L35.3095 0.527593L27.4179 0.527955Z" fill="url(#paint0_linear_639_3195)"/>
</g>
<defs>
<linearGradient id="paint0_linear_639_3195" x1="4275.58" y1="89.8192" x2="4361.64" y2="-2978.93" gradientUnits="userSpaceOnUse">
<stop stop-color="#222357"/>
<stop offset="1" stop-color="#254AA5"/>
</linearGradient>
<clipPath id="clip0_639_3195">
<rect width="93" height="30" fill="white"/>
</clipPath>
</defs>
</svg>
